<svg preserveAspectRatio="none" overflow="visible" style="display: block;" width="16.701" height="16.701" viewBox="0 0 16.701 16.701" fill="none" xmlns="http://www.w3.org/2000/svg">
<g id="link" clip-path="url(#clip0_0_474)">
<path id="Vector" d="M6.95924 9.04639C7.25808 9.44592 7.63936 9.77649 8.0772 10.0157C8.51504 10.2549 8.9992 10.3972 9.49685 10.4328C9.9945 10.4685 10.494 10.3966 10.9615 10.2223C11.4289 10.0479 11.8534 9.77502 12.2061 9.42217L14.2938 7.33454C14.9276 6.67832 15.2783 5.79942 15.2703 4.88714C15.2624 3.97485 14.8965 3.10218 14.2514 2.45708C13.6063 1.81197 12.7336 1.44605 11.8213 1.43812C10.909 1.43019 10.0301 1.78089 9.37393 2.41469L8.17702 3.60464M9.74288 7.65482C9.44403 7.2553 9.06276 6.92472 8.62492 6.68551C8.18708 6.44629 7.70291 6.30404 7.20526 6.2684C6.70761 6.23276 6.20812 6.30457 5.74066 6.47894C5.27319 6.65332 4.8487 6.92619 4.49597 7.27905L2.40834 9.36668C1.77455 10.0229 1.42384 10.9018 1.43177 11.8141C1.4397 12.7264 1.80562 13.599 2.45073 14.2441C3.09583 14.8892 3.96851 15.2552 4.88079 15.2631C5.79307 15.271 6.67197 14.9203 7.32819 14.2865L8.51814 13.0966" stroke="black" stroke-opacity="0.501961" stroke-width="1.85567" stroke-linecap="round"/>
</g>
<defs>
<clipPath id="clip0_0_474">
<rect width="16.701" height="16.701" fill="white"/>
</clipPath>
</defs>
</svg>
